<svg width="57" height="60" viewBox="0 0 57 60" fill="none" xmlns="http://www.w3.org/2000/svg">
<path d="M49.6519 0.605469H6.72324C3.02063 0.605469 0.015625 3.76582 0.015625 7.65982V52.8077C0.015625 56.7017 3.02063 59.862 6.72324 59.862H49.6519C53.3545 59.862 56.3596 56.7017 56.3596 52.8077V7.65982C56.3596 3.76582 53.3545 0.605469 49.6519 0.605469ZM44.2859 21.7685H41.6028C38.732 21.7685 37.5782 22.474 37.5782 24.5903V28.8229H44.2859L42.9443 35.8772H37.5782V57.0403H30.8706V35.8772H25.5045V28.8229H30.8706V24.5903C30.8706 18.9468 33.5537 14.7142 38.9198 14.7142C42.8102 14.7142 44.2859 16.125 44.2859 16.125V21.7685Z" fill="#FFF6E5"/>
</svg>

