<svg width="57" height="54" viewBox="0 0 57 54" fill="none" xmlns="http://www.w3.org/2000/svg">
<path d="M49.941 0.671387H7.0123C3.3097 0.671387 0.304688 3.50471 0.304688 6.99577V47.4718C0.304688 50.9629 3.3097 53.7962 7.0123 53.7962H49.941C53.6436 53.7962 56.6486 50.9629 56.6486 47.4718V6.99577C56.6486 3.50471 53.6436 0.671387 49.941 0.671387ZM17.7445 20.9094V44.9421H9.69534V20.9094H17.7445ZM9.69534 13.9147C9.69534 12.1438 11.3052 10.7904 13.7199 10.7904C16.1346 10.7904 17.6506 12.1438 17.7445 13.9147C17.7445 15.6855 16.242 17.1148 13.7199 17.1148C11.3052 17.1148 9.69534 15.6855 9.69534 13.9147ZM47.258 44.9421H39.2088C39.2088 44.9421 39.2088 33.2293 39.2088 32.2933C39.2088 29.7636 37.8673 27.2338 34.5135 27.1832H34.4062C31.1597 27.1832 29.8182 29.7889 29.8182 32.2933C29.8182 33.4444 29.8182 44.9421 29.8182 44.9421H21.769V20.9094H29.8182V24.1475C29.8182 24.1475 32.4073 20.9094 37.6124 20.9094C42.9383 20.9094 47.258 24.3625 47.258 31.3573V44.9421Z"/>
</svg>
